<?xml version="1.0" encoding="UTF-8" standalone="no"?>
<!-- Created with Inkscape (http://www.inkscape.org/) -->

<svg
   width="218.39999mm"
   height="195.39999mm"
   viewBox="0 0 218.39999 195.39999"
   version="1.1"
   id="svg1"
   inkscape:version="1.4 (e7c3feb1, 2024-10-09)"
   sodipodi:docname="bottom.svg"
   xmlns:inkscape="http://www.inkscape.org/namespaces/inkscape"
   xmlns:sodipodi="http://sodipodi.sourceforge.net/DTD/sodipodi-0.dtd"
   xmlns="http://www.w3.org/2000/svg"
   xmlns:svg="http://www.w3.org/2000/svg">
  <sodipodi:namedview
     id="namedview1"
     pagecolor="#ffffff"
     bordercolor="#666666"
     borderopacity="1.0"
     inkscape:showpageshadow="2"
     inkscape:pageopacity="0.0"
     inkscape:pagecheckerboard="0"
     inkscape:deskcolor="#d1d1d1"
     inkscape:document-units="mm"
     inkscape:zoom="0.39626069"
     inkscape:cx="537.52494"
     inkscape:cy="672.53707"
     inkscape:window-width="1752"
     inkscape:window-height="1074"
     inkscape:window-x="0"
     inkscape:window-y="44"
     inkscape:window-maximized="0"
     inkscape:current-layer="layer1" />
  <defs
     id="defs1" />
  <g
     inkscape:label="Layer 1"
     inkscape:groupmode="layer"
     id="layer1"
     transform="translate(6.35,-50.8)">
    <g
       id="p-3"
       style="fill:none;stroke-linecap:round;stroke-linejoin:round"
       transform="translate(-16.25,40.9)">
      <path
         d="M 19.1,196.2 H 38 c 0.1,0 0,-0.1 0,0 v 8.9 c 0,0.055 0.045,0.1 0.1,0.1 h 18 c 0.055,0 0.1,-0.045 0.1,-0.1 v -8.9 c 0,-0.1 -0.1,0 0,0 H 74 c 0.1,0 0,-0.1 0,0 v 8.9 c 0,0.055 0.045,0.1 0.1,0.1 h 18 c 0.055,0 0.1,-0.045 0.1,-0.1 v -8.9 c 0,-0.1 -0.1,0 0,0 H 110 c 0.1,0 0,-0.1 0,0 v 8.9 c 0,0.055 0.045,0.1 0.1,0.1 h 18 c 0.055,0 0.1,-0.045 0.1,-0.1 v -8.9 c 0,-0.1 -0.1,0 0,0 H 146 c 0.1,0 0,-0.1 0,0 v 8.9 c 0,0.055 0.045,0.1 0.1,0.1 h 18 c 0.055,0 0.1,-0.045 0.1,-0.1 v -8.9 c 0,-0.1 -0.1,0 0,0 H 182 c 0.1,0 0,-0.1 0,0 v 8.9 c 0,0.055 0.045,0.1 0.1,0.1 h 18 c 0.055,0 0.1,-0.045 0.1,-0.1 v -8.9 c 0,-0.1 -0.1,0 0,0 h 18.9 c 0.055,0 0.1,-0.045 0.1,-0.1 v -25.4 c 0,-0.1 -0.1,0 0,0 h 8.9 c 0.055,0 0.1,-0.045 0.1,-0.1 v -18 c 0,-0.055 -0.045,-0.1 -0.1,-0.1 h -8.9 c -0.1,0 0,0.1 0,0 v -17.8 c 0,-0.1 -0.1,0 0,0 h 8.9 c 0.055,0 0.1,-0.045 0.1,-0.1 v -18 c 0,-0.055 -0.045,-0.1 -0.1,-0.1 h -8.9 c -0.1,0 0,0.1 0,0 V 98.7 c 0,-0.1 -0.1,0 0,0 h 8.9 c 0.055,0 0.1,-0.045 0.1,-0.1 v -18 c 0,-0.055 -0.045,-0.1 -0.1,-0.1 h -8.9 c -0.1,0 0,0.1 0,0 V 62.7 c 0,-0.1 -0.1,0 0,0 h 8.9 c 0.055,0 0.1,-0.045 0.1,-0.1 v -18 c 0,-0.055 -0.045,-0.1 -0.1,-0.1 h -8.9 c -0.1,0 0,0.1 0,0 V 19.1 c 0,-0.055 -0.045,-0.1 -0.1,-0.1 h -18.9 c -0.1,0 0,0.1 0,0 v -8.9 c 0,-0.055 -0.045,-0.1 -0.1,-0.1 h -18 c -0.055,0 -0.1,0.045 -0.1,0.1 V 19 c 0,0.1 0.1,0 0,0 h -17.8 c -0.1,0 0,0.1 0,0 v -8.9 c 0,-0.055 -0.045,-0.1 -0.1,-0.1 h -18 c -0.055,0 -0.1,0.045 -0.1,0.1 V 19 c 0,0.1 0.1,0 0,0 h -17.8 c -0.1,0 0,0.1 0,0 v -8.9 c 0,-0.055 -0.045,-0.1 -0.1,-0.1 h -18 c -0.055,0 -0.1,0.045 -0.1,0.1 V 19 c 0,0.1 0.1,0 0,0 H 92.2 c -0.1,0 0,0.1 0,0 V 10.1 C 92.2,10.045 92.155,10 92.1,10 h -18 C 74.045,10 74,10.045 74,10.1 V 19 c 0,0.1 0.1,0 0,0 H 56.2 c -0.1,0 0,0.1 0,0 V 10.1 C 56.2,10.045 56.155,10 56.1,10 h -18 C 38.045,10 38,10.045 38,10.1 V 19 c 0,0.1 0.1,0 0,0 H 19.1 C 19.045,19 19,19.155 19,19.1 v -8.995833 c 0,-0.1 0.1,0 0,0 h -8.9 c -0.055,0 -0.1,0.045 -0.1,0.1 V 204.99583 c 0,0.055 0.045,0.1 0.1,0.1 H 19 c 0.1,0 0,0.1 0,0 V 196.1 c 0,-0.055 0.045,0.1 0.1,0.1 z"
         stroke="#000000"
         stroke-width="0.2"
         id="path4"
         sodipodi:nodetypes="sssssssssssssssssssssssssssssssssssssssssssssssssssssssssssssssssssssssssssssssssssssssssssssssssssssssssssssssssssssssssssssssss" />
    </g>
  </g>
</svg>
